<?xml version="1.0" encoding="utf-8"?>
<!-- Designed by Vexels.com - 2016 All Rights Reserved - https://vexels.com/terms-and-conditions/  -->

<svg version="1.0" id="Capa_1" xmlns="http://www.w3.org/2000/svg" xmlns:xlink="http://www.w3.org/1999/xlink" x="0px" y="0px"
	 width="1200px" height="1200px" viewBox="0 0 1200 1200" enable-background="new 0 0 1200 1200" xml:space="preserve">
<g>
	<path d="M600,61.434C303.034,61.434,61.434,303.036,61.434,600c0,296.966,241.6,538.566,538.566,538.566
		S1138.566,896.966,1138.566,600C1138.566,303.036,896.966,61.434,600,61.434z M1101.594,600
		c0,276.587-225.008,501.608-501.594,501.608S98.39,876.587,98.39,600C98.39,323.415,323.415,98.406,600,98.406
		S1101.594,323.415,1101.594,600z"/>
	<path d="M634.037,642.684c-6.179,6.336-12.065,12.48-18.071,18.507c-22.183,22.264-44.41,44.486-66.618,66.731
		c-1.848,1.852-3.482,3.984-5.561,5.52c-1.934,1.43-1.789,3.079-1.602,4.976c1.294,12.867,2.552,25.736,3.863,38.601
		c1.145,11.245,2.401,22.477,3.496,33.727c1.011,10.364,2.011,20.734,2.666,31.125c0.112,1.779-1.108,4.09-2.437,5.441
		c-11.162,11.377-22.473,22.607-33.785,33.833c-3.327,3.307-7.558,4.325-10.443-1.877c-7.324-15.746-14.404-31.607-21.611-47.408
		c-6.347-13.913-12.72-27.813-19.094-41.713c-5.501-11.999-11.003-24-16.566-35.97c-0.418-0.895-1.174-1.891-2.03-2.284
		c-17.573-8.076-35.193-16.043-52.777-24.084c-12.479-5.706-24.911-11.501-37.379-17.229c-11.887-5.462-23.806-10.854-35.682-16.345
		c-4.737-2.193-5.468-6.32-1.757-10.058c7.405-7.461,14.896-14.832,22.355-22.239c4.197-4.166,8.308-8.428,12.662-12.423
		c1.159-1.066,3.112-1.914,4.642-1.825c6.632,0.38,13.245,1.145,19.862,1.767c9.376,0.882,18.755,1.726,28.125,2.647
		c10.914,1.073,21.826,2.201,32.735,3.323c7.934,0.818,15.859,1.721,23.803,2.437c1.025,0.091,2.424-0.413,3.156-1.141
		c24.655-24.531,49.229-49.142,73.865-73.694c5.656-5.636,11.499-11.083,17.763-17.108c-4.59-2.16-8.293-3.97-12.053-5.656
		c-14.427-6.466-28.871-12.896-43.308-19.335c-17.06-7.609-34.137-15.181-51.18-22.83c-15.219-6.83-30.382-13.784-45.602-20.615
		c-15.938-7.151-31.926-14.189-47.865-21.332c-12.532-5.615-25.025-11.317-37.54-16.967c-10.91-4.927-21.819-9.856-32.746-14.745
		c-4.449-1.99-5.574-6.485-2.22-9.858c14.613-14.694,29.241-29.373,44.013-43.906c1.393-1.37,3.889-2.501,5.766-2.354
		c13.03,1.021,26.029,2.418,39.043,3.677c8.599,0.831,17.207,1.595,25.804,2.457c11.135,1.112,22.259,2.313,33.394,3.431
		c8.818,0.885,17.645,1.668,26.461,2.558c11.245,1.137,22.479,2.366,33.723,3.497c8.705,0.876,17.426,1.626,26.133,2.501
		c11.133,1.12,22.258,2.339,33.391,3.464c8.709,0.878,17.426,1.645,26.135,2.521c11.242,1.128,22.481,2.344,33.723,3.47
		c8.82,0.882,17.649,1.643,26.465,2.532c11.135,1.126,22.26,2.331,33.388,3.488c7.824,0.814,15.64,1.73,23.481,2.3
		c1.44,0.103,3.342-0.88,4.433-1.963c20.883-20.722,41.667-41.548,62.499-62.325c14.876-14.838,29.573-29.865,44.757-44.381
		c12.268-11.728,26.616-20.555,42.506-26.544c11.129-4.195,22.704-6.696,34.755-5.52c12.114,1.182,22.047,6.086,27.695,17.42
		c4.619,9.271,4.877,19.224,3.296,29.222c-4.468,28.255-19.548,50.632-39.297,70.385c-23.694,23.7-47.378,47.413-71.055,71.127
		c-9.407,9.422-18.833,18.823-28.119,28.367c-1.037,1.068-1.802,3.044-1.674,4.509c0.949,10.703,2.164,21.383,3.278,32.072
		c0.851,8.153,1.688,16.308,2.519,24.465c1.234,12.121,2.468,24.244,3.681,36.366c0.796,7.938,1.546,15.88,2.331,23.818
		c1.151,11.687,2.302,23.376,3.478,35.062c0.81,8.045,1.696,16.083,2.482,24.13c1.133,11.579,2.17,23.167,3.311,34.746
		c1.225,12.46,2.507,24.911,3.797,37.365c1.564,15.097,3.232,30.183,4.72,45.288c1.519,15.434,2.862,30.886,4.311,46.328
		c0.63,6.727,1.281,13.454,2.029,20.17c0.306,2.751-0.527,4.871-2.486,6.814c-14.576,14.456-29.092,28.978-43.647,43.455
		c-3.606,3.586-7.963,2.703-10.048-1.914c-9.819-21.737-19.707-43.445-29.468-65.21c-11.604-25.878-23.057-51.825-34.661-77.703
		c-9.046-20.168-18.279-40.25-27.325-60.418c-9.624-21.472-19.122-42.998-28.689-64.495
		C635.213,644.36,634.845,643.928,634.037,642.684z"/>
</g>
</svg>
